# xmcd CD database file
#
# Track frame offsets:
#	150
#	11640
#	27355
#	38927
#	54982
#	76425
#	89107
#	101107
#	116627
#	124162
#	136280
#	153802
#	166655
#	177755
#	194590
#	207822
#	222755
#	235805
#
# Disc length: 3381 seconds
#
# Revision: 0
# Processed by: cddbd v1.4PL0 Copyright (c) Steve Scherf et al.
# Submitted via: CDex 1.51
#
DISCID=f20d3312
DTITLE=Wim Pols - Komt, verwondert u
DYEAR=2003
DGENRE=Country
TTITLE0=Nu zijt wellekome
TTITLE1=Stille nacht
TTITLE2=Kom mensen luister naar dit lied
TTITLE3=Kerstzang
TTITLE4=Daar ruist langs de wolken
TTITLE5=De herdertjes lagen bij nachte
TTITLE6=Geen wiegje als rustplaats
TTITLE7=Komt allen tezamen
TTITLE8='t Is geboren, 't heilig Kind
TTITLE9=In oude tijd te Bethlehem
TTITLE10=Op U mijn Heiland blijf ik hopen
TTITLE11=Hoor d'eng'len zingen d'eer
TTITLE12=O Kindeke klein
TTITLE13=Daar is uit 's werelds duist're wolken
TTITLE14=Midden in de winternacht
TTITLE15=Er is een Kindeke geboren op d'aard'
TTITLE16=Komt, verwondert u hier mensen
TTITLE17=Ere zij God
EXTD=YEAR: 2003
EXTT0=
EXTT1=
EXTT2=
EXTT3=
EXTT4=
EXTT5=
EXTT6=
EXTT7=
EXTT8=
EXTT9=
EXTT10=
EXTT11=
EXTT12=
EXTT13=
EXTT14=
EXTT15=
EXTT16=
EXTT17=
PLAYORDER=
